<svg width="780" height="400" viewBox="0 0 780 400" fill="none" xmlns="http://www.w3.org/2000/svg">
<g clip-path="url(#clip0_2056_3936)">
<rect width="782" height="400" fill="#091B36"/>
<ellipse cx="599.719" cy="275.285" rx="290" ry="117.848" transform="rotate(117.074 599.719 275.285)" fill="url(#paint0_radial_2056_3936)"/>
<mask id="mask0_2056_3936" style="mask-type:alpha" maskUnits="userSpaceOnUse" x="325" y="-82" width="522" height="708">
<path d="M541.492 625.344L846.694 28.2632L630.982 -82L325.779 515.08L541.492 625.344Z" fill="url(#paint1_linear_2056_3936)"/>
</mask>
<g mask="url(#mask0_2056_3936)">
<g filter="url(#filter0_d_2056_3936)">
<path d="M342.686 144.275C274.609 277.458 327.229 440.531 460.218 508.509C593.206 576.487 756.201 523.628 824.279 390.445C892.356 257.263 839.735 94.1903 706.747 26.2124C573.759 -41.7656 410.764 11.0931 342.686 144.275Z" stroke="url(#paint2_linear_2056_3936)" stroke-width="1.41225"/>
</g>
<g filter="url(#filter1_d_2056_3936)">
<path d="M371.671 161.996C312.121 278.496 358.151 421.143 474.481 480.606C590.811 540.069 733.39 493.831 792.94 377.331C852.49 260.831 806.46 118.185 690.13 58.7217C573.8 -0.741382 431.221 45.4963 371.671 161.996Z" stroke="url(#paint3_linear_2056_3936)" stroke-width="1.56316"/>
</g>
<g filter="url(#filter2_d_2056_3936)">
<path d="M399.517 176.406C347.86 277.466 387.789 401.207 488.701 452.789C589.614 504.371 713.296 464.262 764.954 363.202C816.611 262.142 776.683 138.401 675.77 86.8184C574.858 35.2361 451.175 75.3457 399.517 176.406Z" stroke="url(#paint4_linear_2056_3936)" stroke-width="1.85617"/>
</g>
<g opacity="0.4">
<g filter="url(#filter3_d_2056_3936)">
<path d="M431.047 192.581C388.363 276.087 421.356 378.333 504.739 420.955C588.123 463.577 690.321 430.435 733.005 346.93C775.689 263.424 742.696 161.178 659.313 118.556C575.93 75.9338 473.732 109.076 431.047 192.581Z" stroke="url(#paint5_linear_2056_3936)" stroke-width="2.30229"/>
</g>
</g>
</g>
<g opacity="0.5" filter="url(#filter4_f_2056_3936)">
<ellipse cx="705.5" cy="393.708" rx="181.5" ry="126.708" fill="#0941AB"/>
</g>
<g opacity="0.9" filter="url(#filter5_f_2056_3936)">
<ellipse cx="77" cy="45" rx="160" ry="162" fill="#0941AB"/>
</g>
<g opacity="0.5" filter="url(#filter6_f_2056_3936)">
<ellipse cx="63.5" cy="431.5" rx="110.5" ry="111.5" fill="#0941AB"/>
</g>
<g filter="url(#filter7_dd_2056_3936)">
<rect x="386" y="80.6084" width="303.323" height="180.686" rx="6.33738" fill="#2D3948"/>
</g>
<g filter="url(#filter8_dd_2056_3936)">
<rect x="386" y="66" width="303.323" height="195.295" rx="6.33738" fill="#2D3948"/>
</g>
<line x1="386" y1="90.9963" x2="689.323" y2="90.9963" stroke="#495463" stroke-opacity="0.7" stroke-width="0.752606"/>
<path fill-rule="evenodd" clip-rule="evenodd" d="M406.685 77.9491H407.536C407.713 77.9491 407.856 78.0812 407.856 78.2442V79.7194C407.856 79.8823 407.713 80.0144 407.536 80.0144H406.686C406.587 80.3536 406.441 80.675 406.255 80.9721L406.857 81.5269C406.982 81.6421 406.982 81.8289 406.857 81.9442L405.726 82.9873C405.601 83.1025 405.398 83.1025 405.273 82.9873L404.672 82.4324C404.35 82.6042 404.001 82.7385 403.633 82.8293V83.6138C403.633 83.7768 403.49 83.9089 403.313 83.9089H401.714C401.537 83.9089 401.394 83.7768 401.394 83.6138V82.8293C401.026 82.7385 400.678 82.6042 400.355 82.4324L399.754 82.9873C399.629 83.1025 399.426 83.1025 399.301 82.9873L398.17 81.9442C398.045 81.829 398.045 81.6422 398.17 81.527L398.772 80.9721C398.586 80.675 398.44 80.3536 398.342 80.0144H397.491C397.314 80.0144 397.171 79.8823 397.171 79.7194V78.2442C397.171 78.0812 397.314 77.9491 397.491 77.9491H398.342C398.44 77.61 398.586 77.2886 398.772 76.9915L398.17 76.4366C398.045 76.3213 398.045 76.1346 398.17 76.0194L399.301 74.9763C399.426 74.861 399.629 74.861 399.754 74.9763L400.355 75.5311C400.678 75.3594 401.026 75.2251 401.394 75.1343V74.3497C401.394 74.1868 401.537 74.0547 401.714 74.0547H403.313C403.49 74.0547 403.633 74.1868 403.633 74.3497V75.1342C404.001 75.2251 404.35 75.3593 404.672 75.5311L405.273 74.9762C405.398 74.861 405.601 74.861 405.726 74.9762L406.857 76.0193C406.982 76.1346 406.982 76.3214 406.857 76.4366L406.255 76.9914C406.441 77.2885 406.587 77.61 406.685 77.9491ZM402.513 80.952C403.693 80.952 404.649 80.0697 404.649 78.9813C404.649 77.8928 403.693 77.0105 402.513 77.0105C401.332 77.0105 400.376 77.8928 400.376 78.9813C400.376 80.0697 401.332 80.952 402.513 80.952Z" fill="white" fill-opacity="0.5"/>
<rect x="408.271" y="108.828" width="9.12401" height="4.562" rx="2.281" fill="#697583"/>
<rect x="441.735" y="109.024" width="31.4639" height="4.96497" rx="2.48248" fill="#9D97F4"/>
<rect x="476.429" y="109.024" width="40.3384" height="4.96497" rx="2.48248" fill="#15C1E6"/>
<rect x="519.998" y="109.024" width="9.68121" height="4.96497" rx="2.48248" fill="#D2DCE4"/>
<rect x="534.887" y="108.828" width="49.1888" height="4.96497" rx="2.48248" fill="#9D97F4"/>
<rect x="589.542" y="108.828" width="62.8524" height="4.96497" rx="2.48248" fill="#15C1E6"/>
<rect x="408.271" y="214.355" width="8.19814" height="4.94014" rx="2.47007" fill="#697583"/>
<rect x="441.735" y="214.133" width="31.4639" height="4.94014" rx="2.47007" fill="#9D97F4"/>
<rect x="478.666" y="214.133" width="40.3384" height="4.94014" rx="2.47007" fill="#D2DCE4"/>
<rect x="524.473" y="214.133" width="16.3963" height="4.94014" rx="2.47007" fill="#15C1E6"/>
<rect x="546.329" y="214.133" width="51.9215" height="4.94014" rx="2.47007" fill="#9D97F4"/>
<rect x="603.717" y="214.133" width="66.496" height="4.94014" rx="2.47007" fill="#D2DCE4"/>
<rect x="519.627" y="129.476" width="9.68121" height="4.70448" rx="2.35224" fill="#15C1E6"/>
<rect x="534.777" y="129.476" width="31.4639" height="4.70448" rx="2.35224" fill="#9D97F4"/>
<rect x="571.708" y="129.476" width="40.3384" height="4.70448" rx="2.35224" fill="#D2DCE4"/>
<rect x="408.271" y="129.812" width="9.12401" height="4.562" rx="2.281" fill="#697583"/>
<rect x="441.735" y="129.476" width="22.5895" height="4.70448" rx="2.35224" fill="#9D97F4"/>
<rect x="469.79" y="129.476" width="44.3722" height="4.70448" rx="2.35224" fill="#D2DCE4"/>
<rect x="517.653" y="235.799" width="39.3807" height="4.87994" rx="2.43997" fill="#D2DCE4"/>
<rect x="562.119" y="235.799" width="9.45138" height="4.87994" rx="2.43997" fill="#15C1E6"/>
<rect x="577.23" y="235.799" width="30.717" height="4.87994" rx="2.43997" fill="#9D97F4"/>
<rect x="408.271" y="235.651" width="9.12401" height="4.562" rx="2.281" fill="#697583"/>
<rect x="440.941" y="235.799" width="22.0532" height="4.87994" rx="2.43997" fill="#9D97F4"/>
<rect x="468.739" y="235.799" width="43.3188" height="4.87994" rx="2.43997" fill="#15C1E6"/>
<rect x="613.695" y="235.799" width="43.3188" height="4.87994" rx="2.43997" fill="#15C1E6"/>
<rect x="616.869" y="151.158" width="9.68121" height="5.13374" rx="2.56687" fill="#15C1E6"/>
<rect x="632.357" y="151.158" width="31.4639" height="5.13374" rx="2.56687" fill="#9D97F4"/>
<rect x="566.766" y="151.158" width="44.3722" height="5.13374" rx="2.56687" fill="#D2DCE4"/>
<rect x="408.271" y="151.129" width="8.19814" height="5.13374" rx="2.56687" fill="#697583"/>
<rect x="476.586" y="151.158" width="36.3045" height="5.13374" rx="2.56687" fill="#15C1E6"/>
<path d="M518.488 153.725C518.488 152.307 519.637 151.158 521.054 151.158H558.679C560.097 151.158 561.246 152.307 561.246 153.725C561.246 155.142 560.097 156.291 558.679 156.291H521.054C519.637 156.291 518.488 155.142 518.488 153.725Z" fill="#9D97F4"/>
<rect x="408.271" y="171.778" width="8.19814" height="5.13374" rx="2.56687" fill="#697583"/>
<rect x="463.003" y="172.188" width="58.1055" height="4.40193" rx="2.20097" fill="#9D97F4"/>
<rect x="526.391" y="172.188" width="22.0097" height="4.40193" rx="2.20097" fill="#9D97F4"/>
<rect x="553.683" y="172.188" width="58.1055" height="4.40193" rx="2.20097" fill="#9D97F4"/>
<rect x="617.07" y="172.188" width="22.0097" height="4.40193" rx="2.20097" fill="#15C1E6"/>
<rect x="584.078" y="193.486" width="22.5895" height="5.13374" rx="2.56687" fill="#9D97F4"/>
<rect x="612.311" y="193.486" width="44.3722" height="5.13374" rx="2.56687" fill="#15C1E6"/>
<rect x="408.271" y="193.457" width="8.19814" height="5.13374" rx="2.56687" fill="#697583"/>
<rect x="494.805" y="193.486" width="46.7925" height="5.13374" rx="2.56687" fill="#15C1E6"/>
<path d="M546.729 196.053C546.729 194.635 547.878 193.486 549.295 193.486H576.432C577.85 193.486 578.999 194.635 578.999 196.053C578.999 197.47 577.85 198.62 576.432 198.62H549.295C547.878 198.62 546.729 197.47 546.729 196.053Z" fill="#D2DCE4"/>
<g filter="url(#filter9_dd_2056_3936)">
<path d="M663.376 143H578.871C576.181 143 574 144.694 574 146.784V293.749C574 295.838 576.181 297.532 578.871 297.532H663.376C666.067 297.532 668.248 295.838 668.248 293.749V146.784C668.248 144.694 666.067 143 663.376 143Z" fill="#4D5B6C"/>
<path d="M578.871 143.603H663.376C665.884 143.603 667.645 145.16 667.645 146.784V293.749C667.645 295.373 665.884 296.93 663.376 296.93H578.871C576.363 296.93 574.603 295.373 574.603 293.749V146.784C574.603 145.16 576.363 143.603 578.871 143.603Z" stroke="white" stroke-opacity="0.3" stroke-width="1.20539"/>
</g>
<g filter="url(#filter10_d_2056_3936)">
<path d="M653.289 168.73H588.626C584.811 168.73 581.719 171.823 581.719 175.637V267.317C581.719 271.132 584.811 274.224 588.626 274.224H653.289C657.104 274.224 660.196 271.132 660.196 267.317V175.637C660.196 171.823 657.104 168.73 653.289 168.73Z" fill="#24303E"/>
<path d="M588.626 169.333H653.289C656.771 169.333 659.593 172.156 659.593 175.637V267.317C659.593 270.799 656.771 273.621 653.289 273.621H588.626C585.144 273.621 582.322 270.799 582.322 267.317V175.637C582.322 172.156 585.144 169.333 588.626 169.333Z" stroke="white" stroke-opacity="0.3" stroke-width="1.20539"/>
</g>
<path d="M651.833 181.595H620.417C618.541 181.595 617.021 183.116 617.021 184.992C617.021 186.867 618.541 188.388 620.417 188.388H651.833C653.708 188.388 655.229 186.867 655.229 184.992C655.229 183.116 653.708 181.595 651.833 181.595Z" fill="white" fill-opacity="0.2"/>
<path d="M592.039 181.595H591.058C589.453 181.595 588.152 182.896 588.152 184.501V185.482C588.152 187.087 589.453 188.388 591.058 188.388H592.039C593.643 188.388 594.944 187.087 594.944 185.482V184.501C594.944 182.896 593.643 181.595 592.039 181.595Z" fill="#3D7FFC"/>
<path d="M601.378 181.595H600.397C598.792 181.595 597.491 182.896 597.491 184.501V185.482C597.491 187.087 598.792 188.388 600.397 188.388H601.378C602.983 188.388 604.284 187.087 604.284 185.482V184.501C604.284 182.896 602.983 181.595 601.378 181.595Z" fill="#15C1E6"/>
<path d="M610.718 181.595H609.737C608.133 181.595 606.832 182.896 606.832 184.501V185.482C606.832 187.087 608.133 188.388 609.737 188.388H610.718C612.323 188.388 613.624 187.087 613.624 185.482V184.501C613.624 182.896 612.323 181.595 610.718 181.595Z" fill="#9D97F4"/>
<path d="M651.833 199.606H620.417C618.541 199.606 617.021 201.127 617.021 203.003C617.021 204.878 618.541 206.399 620.417 206.399H651.833C653.708 206.399 655.229 204.878 655.229 203.003C655.229 201.127 653.708 199.606 651.833 199.606Z" fill="white" fill-opacity="0.2"/>
<path d="M592.039 199.606H591.058C589.453 199.606 588.152 200.907 588.152 202.512V203.493C588.152 205.098 589.453 206.399 591.058 206.399H592.039C593.643 206.399 594.944 205.098 594.944 203.493V202.512C594.944 200.907 593.643 199.606 592.039 199.606Z" fill="#3D7FFC"/>
<path d="M601.378 199.606H600.397C598.792 199.606 597.491 200.907 597.491 202.512V203.493C597.491 205.098 598.792 206.399 600.397 206.399H601.378C602.983 206.399 604.284 205.098 604.284 203.493V202.512C604.284 200.907 602.983 199.606 601.378 199.606Z" fill="#3D7FFC"/>
<path d="M610.718 199.606H609.737C608.133 199.606 606.832 200.907 606.832 202.512V203.493C606.832 205.098 608.133 206.399 609.737 206.399H610.718C612.323 206.399 613.624 205.098 613.624 203.493V202.512C613.624 200.907 612.323 199.606 610.718 199.606Z" fill="#15C1E6"/>
<path d="M651.833 217.618H620.417C618.541 217.618 617.021 219.138 617.021 221.014C617.021 222.89 618.541 224.41 620.417 224.41H651.833C653.708 224.41 655.229 222.89 655.229 221.014C655.229 219.138 653.708 217.618 651.833 217.618Z" fill="white" fill-opacity="0.2"/>
<path d="M592.039 217.618H591.058C589.453 217.618 588.152 218.919 588.152 220.524V221.504C588.152 223.109 589.453 224.41 591.058 224.41H592.039C593.643 224.41 594.944 223.109 594.944 221.504V220.524C594.944 218.919 593.643 217.618 592.039 217.618Z" fill="#15C1E6"/>
<path d="M601.378 217.618H600.397C598.792 217.618 597.491 218.919 597.491 220.524V221.504C597.491 223.109 598.792 224.41 600.397 224.41H601.378C602.983 224.41 604.284 223.109 604.284 221.504V220.524C604.284 218.919 602.983 217.618 601.378 217.618Z" fill="#9D97F4"/>
<path d="M610.718 217.618H609.737C608.133 217.618 606.832 218.919 606.832 220.524V221.504C606.832 223.109 608.133 224.41 609.737 224.41H610.718C612.323 224.41 613.624 223.109 613.624 221.504V220.524C613.624 218.919 612.323 217.618 610.718 217.618Z" fill="#3D7FFC"/>
<path d="M651.833 235.628H620.417C618.541 235.628 617.021 237.149 617.021 239.025C617.021 240.9 618.541 242.421 620.417 242.421H651.833C653.708 242.421 655.229 240.9 655.229 239.025C655.229 237.149 653.708 235.628 651.833 235.628Z" fill="white" fill-opacity="0.2"/>
<path d="M592.039 235.628H591.058C589.453 235.628 588.152 236.929 588.152 238.534V239.515C588.152 241.12 589.453 242.421 591.058 242.421H592.039C593.643 242.421 594.944 241.12 594.944 239.515V238.534C594.944 236.929 593.643 235.628 592.039 235.628Z" fill="#3D7FFC"/>
<path d="M601.378 235.628H600.397C598.792 235.628 597.491 236.929 597.491 238.534V239.515C597.491 241.12 598.792 242.421 600.397 242.421H601.378C602.983 242.421 604.284 241.12 604.284 239.515V238.534C604.284 236.929 602.983 235.628 601.378 235.628Z" fill="#15C1E6"/>
<path d="M610.718 235.628H609.737C608.133 235.628 606.832 236.929 606.832 238.534V239.515C606.832 241.12 608.133 242.421 609.737 242.421H610.718C612.323 242.421 613.624 241.12 613.624 239.515V238.534C613.624 236.929 612.323 235.628 610.718 235.628Z" fill="#3D7FFC"/>
<path d="M651.833 253.639H620.417C618.541 253.639 617.021 255.16 617.021 257.035C617.021 258.911 618.541 260.432 620.417 260.432H651.833C653.708 260.432 655.229 258.911 655.229 257.035C655.229 255.16 653.708 253.639 651.833 253.639Z" fill="white" fill-opacity="0.2"/>
<path d="M592.039 253.639H591.058C589.453 253.639 588.152 254.94 588.152 256.545V257.526C588.152 259.131 589.453 260.432 591.058 260.432H592.039C593.643 260.432 594.944 259.131 594.944 257.526V256.545C594.944 254.94 593.643 253.639 592.039 253.639Z" fill="#3D7FFC"/>
<path d="M601.378 253.639H600.397C598.792 253.639 597.491 254.94 597.491 256.545V257.526C597.491 259.131 598.792 260.432 600.397 260.432H601.378C602.983 260.432 604.284 259.131 604.284 257.526V256.545C604.284 254.94 602.983 253.639 601.378 253.639Z" fill="#15C1E6"/>
<path d="M610.718 253.639H609.737C608.133 253.639 606.832 254.94 606.832 256.545V257.526C606.832 259.131 608.133 260.432 609.737 260.432H610.718C612.323 260.432 613.624 259.131 613.624 257.526V256.545C613.624 254.94 612.323 253.639 610.718 253.639Z" fill="#3D7FFC"/>
<path d="M603.485 153.75C603.844 152.23 602.902 150.707 601.379 150.349C599.857 149.99 598.331 150.931 597.972 152.451C597.613 153.971 598.556 155.494 600.078 155.853C601.6 156.212 603.126 155.271 603.485 153.75Z" fill="#0BE597"/>
<path d="M594.991 153.557C595.242 152.016 594.193 150.563 592.649 150.313C591.105 150.062 589.65 151.109 589.4 152.651C589.149 154.193 590.198 155.645 591.742 155.895C593.286 156.146 594.74 155.099 594.991 153.557Z" fill="#0BE597"/>
<path d="M585.655 155.102C586.761 153.998 586.761 152.207 585.655 151.103C584.549 149.998 582.756 149.998 581.65 151.103C580.544 152.207 580.544 153.998 581.65 155.102C582.756 156.207 584.549 156.207 585.655 155.102Z" fill="#0BE597"/>
<g filter="url(#filter11_dd_2056_3936)">
<path d="M725.128 162.298H640.624C637.933 162.298 635.752 163.992 635.752 166.081V313.047C635.752 315.136 637.933 316.83 640.624 316.83H725.128C727.819 316.83 730 315.136 730 313.047V166.081C730 163.992 727.819 162.298 725.128 162.298Z" fill="#4D5B6C"/>
<path d="M640.624 162.901H725.128C727.637 162.901 729.397 164.458 729.397 166.081V313.047C729.397 314.671 727.637 316.227 725.128 316.227H640.624C638.115 316.227 636.355 314.671 636.355 313.047V166.081C636.355 164.458 638.115 162.901 640.624 162.901Z" stroke="white" stroke-opacity="0.3" stroke-width="1.20539"/>
</g>
<g filter="url(#filter12_d_2056_3936)">
<path d="M715.042 188.027H650.378C646.564 188.027 643.471 191.12 643.471 194.934V286.614C643.471 290.429 646.564 293.521 650.378 293.521H715.042C718.856 293.521 721.948 290.429 721.948 286.614V194.934C721.948 191.12 718.856 188.027 715.042 188.027Z" fill="#24303E"/>
<path d="M650.378 188.63H715.042C718.523 188.63 721.346 191.452 721.346 194.934V286.614C721.346 290.096 718.523 292.918 715.042 292.918H650.378C646.897 292.918 644.074 290.096 644.074 286.614V194.934C644.074 191.452 646.897 188.63 650.378 188.63Z" stroke="white" stroke-opacity="0.3" stroke-width="1.20539"/>
</g>
<path d="M713.585 200.892H682.169C680.293 200.892 678.772 202.413 678.772 204.288C678.772 206.164 680.293 207.685 682.169 207.685H713.585C715.46 207.685 716.981 206.164 716.981 204.288C716.981 202.413 715.46 200.892 713.585 200.892Z" fill="white" fill-opacity="0.2"/>
<path d="M653.791 200.892H652.81C651.205 200.892 649.904 202.193 649.904 203.798V204.779C649.904 206.384 651.205 207.685 652.81 207.685H653.791C655.396 207.685 656.697 206.384 656.697 204.779V203.798C656.697 202.193 655.396 200.892 653.791 200.892Z" fill="#3D7FFC"/>
<path d="M663.13 200.892H662.15C660.545 200.892 659.244 202.193 659.244 203.798V204.779C659.244 206.384 660.545 207.685 662.15 207.685H663.13C664.735 207.685 666.036 206.384 666.036 204.779V203.798C666.036 202.193 664.735 200.892 663.13 200.892Z" fill="#15C1E6"/>
<path d="M672.47 200.892H671.49C669.885 200.892 668.584 202.193 668.584 203.798V204.779C668.584 206.384 669.885 207.685 671.49 207.685H672.47C674.075 207.685 675.376 206.384 675.376 204.779V203.798C675.376 202.193 674.075 200.892 672.47 200.892Z" fill="#3D7FFC"/>
<path d="M713.585 218.904H682.169C680.293 218.904 678.772 220.425 678.772 222.301C678.772 224.176 680.293 225.697 682.169 225.697H713.585C715.46 225.697 716.981 224.176 716.981 222.301C716.981 220.425 715.46 218.904 713.585 218.904Z" fill="white" fill-opacity="0.2"/>
<path d="M653.791 218.904H652.81C651.205 218.904 649.904 220.205 649.904 221.81V222.791C649.904 224.396 651.205 225.697 652.81 225.697H653.791C655.396 225.697 656.697 224.396 656.697 222.791V221.81C656.697 220.205 655.396 218.904 653.791 218.904Z" fill="#9D97F4"/>
<path d="M663.13 218.904H662.15C660.545 218.904 659.244 220.205 659.244 221.81V222.791C659.244 224.396 660.545 225.697 662.15 225.697H663.13C664.735 225.697 666.036 224.396 666.036 222.791V221.81C666.036 220.205 664.735 218.904 663.13 218.904Z" fill="#3D7FFC"/>
<path d="M672.47 218.904H671.49C669.885 218.904 668.584 220.205 668.584 221.81V222.791C668.584 224.396 669.885 225.697 671.49 225.697H672.47C674.075 225.697 675.376 224.396 675.376 222.791V221.81C675.376 220.205 674.075 218.904 672.47 218.904Z" fill="#15C1E6"/>
<path d="M713.585 236.915H682.169C680.293 236.915 678.772 238.436 678.772 240.311C678.772 242.187 680.293 243.708 682.169 243.708H713.585C715.46 243.708 716.981 242.187 716.981 240.311C716.981 238.436 715.46 236.915 713.585 236.915Z" fill="white" fill-opacity="0.2"/>
<path d="M653.791 236.915H652.81C651.205 236.915 649.904 238.216 649.904 239.821V240.802C649.904 242.407 651.205 243.708 652.81 243.708H653.791C655.396 243.708 656.697 242.407 656.697 240.802V239.821C656.697 238.216 655.396 236.915 653.791 236.915Z" fill="#15C1E6"/>
<path d="M663.13 236.915H662.15C660.545 236.915 659.244 238.216 659.244 239.821V240.802C659.244 242.407 660.545 243.708 662.15 243.708H663.13C664.735 243.708 666.036 242.407 666.036 240.802V239.821C666.036 238.216 664.735 236.915 663.13 236.915Z" fill="#3D7FFC"/>
<path d="M672.47 236.915H671.49C669.885 236.915 668.584 238.216 668.584 239.821V240.802C668.584 242.407 669.885 243.708 671.49 243.708H672.47C674.075 243.708 675.376 242.407 675.376 240.802V239.821C675.376 238.216 674.075 236.915 672.47 236.915Z" fill="#3D7FFC"/>
<path d="M713.585 254.926H682.169C680.293 254.926 678.772 256.447 678.772 258.323C678.772 260.198 680.293 261.719 682.169 261.719H713.585C715.46 261.719 716.981 260.198 716.981 258.323C716.981 256.447 715.46 254.926 713.585 254.926Z" fill="white" fill-opacity="0.2"/>
<path d="M653.791 254.926H652.81C651.205 254.926 649.904 256.227 649.904 257.832V258.813C649.904 260.418 651.205 261.719 652.81 261.719H653.791C655.396 261.719 656.697 260.418 656.697 258.813V257.832C656.697 256.227 655.396 254.926 653.791 254.926Z" fill="#3D7FFC"/>
<path d="M663.13 254.926H662.15C660.545 254.926 659.244 256.227 659.244 257.832V258.813C659.244 260.418 660.545 261.719 662.15 261.719H663.13C664.735 261.719 666.036 260.418 666.036 258.813V257.832C666.036 256.227 664.735 254.926 663.13 254.926Z" fill="#15C1E6"/>
<path d="M672.47 254.926H671.49C669.885 254.926 668.584 256.227 668.584 257.832V258.813C668.584 260.418 669.885 261.719 671.49 261.719H672.47C674.075 261.719 675.376 260.418 675.376 258.813V257.832C675.376 256.227 674.075 254.926 672.47 254.926Z" fill="#3D7FFC"/>
<path d="M713.585 272.938H682.169C680.293 272.938 678.772 274.458 678.772 276.334C678.772 278.21 680.293 279.73 682.169 279.73H713.585C715.46 279.73 716.981 278.21 716.981 276.334C716.981 274.458 715.46 272.938 713.585 272.938Z" fill="white" fill-opacity="0.2"/>
<path d="M653.791 272.938H652.81C651.205 272.938 649.904 274.239 649.904 275.843V276.824C649.904 278.429 651.205 279.73 652.81 279.73H653.791C655.396 279.73 656.697 278.429 656.697 276.824V275.843C656.697 274.239 655.396 272.938 653.791 272.938Z" fill="#3D7FFC"/>
<path d="M663.13 272.938H662.15C660.545 272.938 659.244 274.239 659.244 275.843V276.824C659.244 278.429 660.545 279.73 662.15 279.73H663.13C664.735 279.73 666.036 278.429 666.036 276.824V275.843C666.036 274.239 664.735 272.938 663.13 272.938Z" fill="#15C1E6"/>
<path d="M672.47 272.938H671.49C669.885 272.938 668.584 274.239 668.584 275.843V276.824C668.584 278.429 669.885 279.73 671.49 279.73H672.47C674.075 279.73 675.376 278.429 675.376 276.824V275.843C675.376 274.239 674.075 272.938 672.47 272.938Z" fill="#9D97F4"/>
<path d="M665.237 173.049C665.597 171.529 664.654 170.006 663.132 169.647C661.609 169.289 660.084 170.23 659.725 171.75C659.365 173.27 660.308 174.793 661.83 175.152C663.353 175.511 664.878 174.569 665.237 173.049Z" fill="#0BE597"/>
<path d="M656.743 172.855C656.994 171.313 655.946 169.86 654.402 169.61C652.858 169.36 651.403 170.407 651.152 171.948C650.902 173.49 651.95 174.943 653.494 175.193C655.038 175.443 656.493 174.396 656.743 172.855Z" fill="#0BE597"/>
<path d="M647.407 174.4C648.513 173.296 648.513 171.505 647.407 170.401C646.301 169.296 644.508 169.296 643.402 170.401C642.296 171.505 642.296 173.296 643.402 174.4C644.508 175.504 646.301 175.504 647.407 174.4Z" fill="#0BE597"/>
<g filter="url(#filter13_dd_2056_3936)">
<rect x="355" y="56" width="106" height="61" rx="9.85273" fill="url(#paint6_linear_2056_3936)" shape-rendering="crispEdges"/>
<rect x="354.392" y="55.3923" width="107.215" height="62.2153" rx="10.4604" stroke="url(#paint7_linear_2056_3936)" stroke-width="1.21534" shape-rendering="crispEdges"/>
</g>
<path d="M396.614 76.3583L398.816 82.2794C399.45 83.9799 400.787 85.3181 402.487 85.9522L408.408 88.1538C408.89 88.3349 408.89 89.0102 408.408 89.1914L402.487 91.3929C400.787 92.027 399.45 93.3638 398.816 95.0644L396.614 100.987C396.433 101.467 395.756 101.467 395.575 100.987L393.374 95.0644C392.74 93.3638 391.403 92.027 389.702 91.3929L383.78 89.1914C383.299 89.0102 383.299 88.3349 383.78 88.1538L389.702 85.9522C391.403 85.3181 392.74 83.9799 393.374 82.2794L395.575 76.3583C395.756 75.878 396.433 75.878 396.614 76.3583Z" fill="white"/>
<path d="M379.195 68.2563L380.763 72.4782C381.216 73.6901 382.17 74.644 383.382 75.097L387.603 76.6644C387.945 76.7906 387.945 77.2779 387.603 77.4028L383.382 78.9702C382.17 79.4231 381.216 80.3784 380.763 81.5903L379.195 85.8122C379.069 86.154 378.582 86.154 378.457 85.8122L376.888 81.5903C376.435 80.3784 375.481 79.4231 374.269 78.9702L370.048 77.4028C369.706 77.2779 369.706 76.7906 370.048 76.6644L374.269 75.097C375.481 74.644 376.435 73.6901 376.888 72.4782L378.457 68.2563C378.582 67.9146 379.069 67.9146 379.195 68.2563Z" fill="white"/>
<path d="M375.993 92.1437L377.157 95.2868C377.49 96.1844 378.201 96.8954 379.1 97.2303L382.242 98.3928C382.5 98.4916 382.5 98.8457 382.242 98.9432L379.1 100.107C378.201 100.442 377.49 101.153 377.157 102.051L375.993 105.194C375.896 105.452 375.54 105.452 375.443 105.194L374.279 102.051C373.945 101.153 373.234 100.442 372.335 100.107L369.194 98.9432C368.935 98.8457 368.935 98.4916 369.194 98.3928L372.335 97.2303C373.234 96.8954 373.945 96.1844 374.279 95.2868L375.443 92.1437C375.54 91.8857 375.896 91.8857 375.993 92.1437Z" fill="white"/>
<path d="M436.074 100.166L434.255 94.9267H423.177L421.359 100.166H416.713L426.153 74.144H431.281L440.685 100.166H436.074ZM424.586 90.9135H432.834L428.71 79.1675L424.586 90.9135Z" fill="white"/>
<path d="M443.474 74.1519H447.75V100.173H443.474V74.1519Z" fill="white"/>
<path d="M78.8653 188.742H74.3175V173.645H57.111V188.742H52.5632V156.392H57.111V169.754H74.3175V156.392H78.8653V188.742ZM108.584 177.678C108.584 184.616 103.426 189.258 96.8157 189.258C90.1581 189.258 85.0009 184.616 85.0009 177.678C85.0009 170.786 90.1581 166.05 96.8157 166.05C103.426 166.05 108.584 170.786 108.584 177.678ZM104.036 177.537C104.036 173.177 101.27 169.707 96.8157 169.707C92.3148 169.707 89.5486 173.177 89.5486 177.537C89.5486 181.944 92.3148 185.413 96.8157 185.413C101.27 185.413 104.036 181.944 104.036 177.537ZM145.652 166.472L138.291 188.742H134.166L128.305 172.098L122.398 188.742H118.272L110.911 166.472H115.459L120.616 183.304L126.477 166.425H130.087L135.947 183.304L141.104 166.472H145.652ZM171.249 188.508C170.077 189.023 168.717 189.258 167.17 189.258C161.591 189.258 161.31 184.663 161.31 180.303V170.129H158.028V166.519H161.31V159.861H165.811V166.519H171.155V170.129H165.811V180.209C165.811 182.085 165.857 183.351 166.373 184.288C166.795 184.991 167.405 185.413 168.671 185.413C169.983 185.413 170.968 184.898 170.968 184.898L171.249 188.508ZM197.999 177.678C197.999 184.616 192.842 189.258 186.231 189.258C179.573 189.258 174.416 184.616 174.416 177.678C174.416 170.786 179.573 166.05 186.231 166.05C192.842 166.05 197.999 170.786 197.999 177.678ZM193.451 177.537C193.451 173.177 190.685 169.707 186.231 169.707C181.73 169.707 178.964 173.177 178.964 177.537C178.964 181.944 181.73 185.413 186.231 185.413C190.685 185.413 193.451 181.944 193.451 177.537ZM233.936 160.19H224.84V188.742H220.293V160.19H211.15V156.392H233.936V160.19ZM248.66 166.425L248.379 170.598H248.191C247.769 170.41 246.972 170.129 245.753 170.129C241.721 170.129 240.737 174.396 240.737 177.631V188.742H236.236V166.472H240.737L240.69 169.895H240.83C241.909 167.363 243.925 166.05 246.316 166.05C247.816 166.05 248.66 166.425 248.66 166.425ZM269.262 188.742H264.902L264.855 185.929C263.965 186.867 261.855 189.258 257.776 189.258C253.65 189.258 250.087 186.679 250.087 182.366C250.087 178.006 253.65 175.802 258.807 175.568L264.762 175.333V174.442C264.762 171.067 262.464 169.379 259.229 169.379C255.994 169.379 253.275 170.832 252.525 171.301L251.165 168.301C252.806 167.363 255.807 166.05 259.511 166.05C266.027 166.05 269.262 169.332 269.262 175.802V188.742ZM264.808 178.053L259.604 178.381C255.994 178.568 254.541 180.115 254.541 182.225C254.541 184.335 256.182 186.07 259.135 186.07C262.042 186.07 263.965 184.101 264.808 182.835V178.053ZM281.321 159.158C281.321 160.752 280.102 161.924 278.414 161.924C276.679 161.924 275.46 160.752 275.46 159.158C275.46 157.564 276.679 156.392 278.414 156.392C280.102 156.392 281.321 157.564 281.321 159.158ZM280.664 188.742H276.163V166.472H280.664V188.742ZM307.357 188.742H302.856V176.318C302.856 172.567 302.199 169.754 298.214 169.754C294.042 169.754 292.494 173.27 292.494 177.537V188.742H287.993V166.472H292.494L292.447 169.988H292.588C293.76 167.785 296.151 166.05 299.386 166.05C305.716 166.05 307.357 170.223 307.357 175.568V188.742ZM72.2077 240.742H65.0344L64.8938 238.304C63.9092 239.289 62.0338 241.258 58.2831 241.258C54.2042 241.258 49.8908 239.054 49.8908 233.897C49.8908 228.74 54.6261 227.005 58.8926 226.818L64.7062 226.583V226.067C64.7062 223.629 62.9715 222.364 59.9709 222.364C57.0172 222.364 54.0635 223.676 52.8914 224.426L50.9223 219.551C52.8914 218.566 56.5015 217.206 60.8148 217.206C65.1282 217.206 67.613 218.191 69.4415 219.879C71.2231 221.567 72.2077 223.817 72.2077 227.708V240.742ZM64.7531 230.568L61.0492 230.803C58.7519 230.896 57.3923 231.881 57.3923 233.616C57.3923 235.397 58.8457 236.476 60.9086 236.476C62.9246 236.476 64.2843 235.163 64.7531 234.366V230.568ZM100.48 240.742H92.9781V228.693C92.9781 225.645 92.5093 223.348 89.4149 223.348C86.1799 223.348 85.2891 225.974 85.2891 229.302V240.742H77.7877V217.628H85.2891L85.2422 220.957H85.336C86.6019 218.894 88.7117 217.206 92.0405 217.206C98.7449 217.206 100.48 221.52 100.48 227.099V240.742ZM146.013 240.742H137.761L135.464 234.225H123.93L121.633 240.742H113.756L125.946 208.345H133.823L146.013 240.742ZM133.729 228.318L129.697 216.691L125.665 228.318H133.729ZM157.297 240.742H149.702V208.392H157.297V240.742ZM210.621 240.742H203.166L201.9 218.707H201.807L194.868 240.742H188.867L181.881 218.707H181.74L180.568 240.742H173.114L175.552 208.392H185.116L191.867 229.678H191.961L198.619 208.392H208.23L210.621 240.742ZM240.065 229.256C240.065 236.71 234.58 241.258 227.266 241.258C219.952 241.258 214.42 236.71 214.42 229.256C214.42 221.801 219.952 217.206 227.266 217.206C234.58 217.206 240.065 221.801 240.065 229.256ZM232.517 229.115C232.517 225.692 230.548 223.114 227.266 223.114C223.937 223.114 222.015 225.692 222.015 229.115C222.015 232.537 223.937 235.116 227.266 235.116C230.548 235.116 232.517 232.537 232.517 229.115ZM269.026 240.742H261.899L261.946 237.695L261.806 237.742C260.071 240.086 257.305 241.258 254.21 241.258C247.506 241.258 243.286 236.007 243.286 229.209C243.286 222.41 247.506 217.206 254.21 217.206C258.43 217.206 260.774 219.316 261.524 220.441V208.392H269.026V240.742ZM261.759 229.115C261.759 225.552 259.602 223.114 256.367 223.114C253.132 223.114 250.929 225.552 250.929 229.115C250.929 232.678 253.132 235.116 256.367 235.116C259.602 235.116 261.759 232.678 261.759 229.115ZM297.807 228.505C297.807 229.631 297.714 230.99 297.714 230.99H281.257C281.585 234.319 284.117 235.819 287.165 235.819C290.165 235.819 292.791 234.507 294.103 233.616L297.057 237.507C296.307 238.07 293.26 241.258 286.086 241.258C278.96 241.258 273.756 236.851 273.756 229.209C273.756 221.567 279.382 217.206 286.227 217.206C293.072 217.206 297.807 221.754 297.807 228.505ZM290.822 226.724C290.775 224.614 289.227 222.082 286.086 222.082C282.992 222.082 281.398 224.52 281.304 226.724H290.822ZM309.885 240.742H302.384V208.392H309.885V240.742Z" fill="white"/>
<path d="M441.733 271.267C441.328 270.862 440.672 270.862 440.267 271.267L433.671 277.863C433.266 278.268 433.266 278.924 433.671 279.329C434.076 279.734 434.732 279.734 435.137 279.329L441 273.466L446.863 279.329C447.268 279.734 447.924 279.734 448.329 279.329C448.734 278.924 448.734 278.268 448.329 277.863L441.733 271.267ZM439.964 272V274.208H442.036V272H439.964ZM439.964 278.625V283.042H442.036V278.625H439.964ZM439.964 287.458V291.875H442.036V287.458H439.964ZM439.964 296.292V300.708H442.036V296.292H439.964ZM439.964 305.125V309.542H442.036V305.125H439.964ZM439.964 313.958V318.375H442.036V313.958H439.964ZM439.964 322.792V325H442.036V322.792H439.964ZM439.964 325C439.964 325.803 440.042 326.588 440.193 327.348L442.226 326.946C442.102 326.317 442.036 325.667 442.036 325H439.964ZM441.991 331.688C442.87 333.001 443.999 334.13 445.312 335.009L446.465 333.286C445.378 332.558 444.442 331.622 443.714 330.535L441.991 331.688ZM449.652 336.807C450.412 336.958 451.197 337.036 452 337.036V334.964C451.333 334.964 450.683 334.898 450.054 334.774L449.652 336.807ZM452 337.036H454.028V334.964H452V337.036ZM458.083 337.036H462.139V334.964H458.083V337.036ZM466.194 337.036H470.25V334.964H466.194V337.036ZM474.306 337.036H478.361V334.964H474.306V337.036ZM482.417 337.036H486.472V334.964H482.417V337.036ZM490.528 337.036H494.583V334.964H490.528V337.036ZM498.639 337.036H502.694V334.964H498.639V337.036ZM506.75 337.036H510.806V334.964H506.75V337.036ZM514.861 337.036H518.917V334.964H514.861V337.036ZM522.972 337.036H527.028V334.964H522.972V337.036ZM531.083 337.036H535.139V334.964H531.083V337.036ZM539.194 337.036H543.25V334.964H539.194V337.036ZM547.306 337.036H551.361V334.964H547.306V337.036ZM555.417 337.036H559.472V334.964H555.417V337.036ZM563.528 337.036H567.583V334.964H563.528V337.036ZM571.639 337.036H575.694V334.964H571.639V337.036ZM579.75 337.036H583.806V334.964H579.75V337.036ZM587.861 337.036H591.917V334.964H587.861V337.036ZM595.972 337.036H598V334.964H595.972V337.036ZM598 337.036C598.803 337.036 599.588 336.958 600.348 336.807L599.946 334.774C599.317 334.898 598.667 334.964 598 334.964V337.036ZM604.688 335.009C606.001 334.13 607.13 333.001 608.009 331.688L606.286 330.535C605.558 331.622 604.622 332.558 603.535 333.286L604.688 335.009ZM609.807 327.348C609.958 326.588 610.036 325.803 610.036 325H607.964C607.964 325.667 607.898 326.317 607.774 326.946L609.807 327.348ZM610.036 325V322.562H607.964V325H610.036ZM610.036 317.688V312.812H607.964V317.688H610.036ZM610.036 307.938V305.5H607.964V307.938H610.036Z" fill="url(#paint8_linear_2056_3936)"/>
<path d="M540.797 312.5H580.263C582.185 312.5 583.736 314.044 583.736 315.939V355.061C583.736 356.956 582.185 358.5 580.263 358.5H540.797C538.875 358.5 537.324 356.956 537.324 355.061V315.939C537.324 314.044 538.875 312.5 540.797 312.5Z" fill="url(#paint9_linear_2056_3936)" stroke="url(#paint10_linear_2056_3936)"/>
<path d="M555.272 324.225C553.074 322.964 551.293 323.997 551.293 326.53V345.218C551.293 347.753 553.074 348.784 555.272 347.525L571.606 338.157C573.805 336.896 573.805 334.853 571.606 333.593L555.272 324.225Z" fill="#9D97F4"/>
<path d="M468.973 312.5H508.439C510.361 312.5 511.912 314.044 511.912 315.939V355.061C511.912 356.956 510.361 358.5 508.439 358.5H468.973C467.051 358.5 465.5 356.956 465.5 355.061V315.939C465.5 314.044 467.051 312.5 468.973 312.5Z" fill="url(#paint11_linear_2056_3936)" stroke="url(#paint12_linear_2056_3936)"/>
<path fill-rule="evenodd" clip-rule="evenodd" d="M504.07 346.355C504.593 346.355 504.91 345.778 504.63 345.336L495.466 330.908C495.205 330.498 494.606 330.498 494.346 330.908L487.699 341.374C487.473 341.73 486.976 341.787 486.675 341.493L481.839 336.762C481.565 336.495 481.123 336.513 480.873 336.803L473.568 345.258C473.196 345.688 473.502 346.355 474.07 346.355H484.535H491.168H504.07Z" fill="#9D97F4"/>
<path d="M480.75 327.188C480.75 329.012 479.271 330.49 477.448 330.49C475.624 330.49 474.145 329.012 474.145 327.188C474.145 325.364 475.624 323.886 477.448 323.886C479.271 323.886 480.75 325.364 480.75 327.188Z" fill="#9D97F4"/>
</g>
<defs>
<filter id="filter0_d_2056_3936" x="304.519" y="-6.40857" width="557.023" height="557.487" filterUnits="userSpaceOnUse" color-interpolation-filters="sRGB">
<feFlood flood-opacity="0" result="BackgroundImageFix"/>
<feColorMatrix in="SourceAlpha" type="matrix" values="0 0 0 0 0 0 0 0 0 0 0 0 0 0 0 0 0 0 127 0" result="hardAlpha"/>
<feOffset dx="-0.452222" dy="4.97445"/>
<feGaussianBlur stdDeviation="3.61778"/>
<feColorMatrix type="matrix" values="0 0 0 0 0.075 0 0 0 0 0.18 0 0 0 0 0.45 0 0 0 0.08 0"/>
<feBlend mode="normal" in2="BackgroundImageFix" result="effect1_dropShadow_2056_3936"/>
<feBlend mode="normal" in="SourceGraphic" in2="effect1_dropShadow_2056_3936" result="shape"/>
</filter>
<filter id="filter1_d_2056_3936" x="336.336" y="29.4982" width="490.938" height="491.343" filterUnits="userSpaceOnUse" color-interpolation-filters="sRGB">
<feFlood flood-opacity="0" result="BackgroundImageFix"/>
<feColorMatrix in="SourceAlpha" type="matrix" values="0 0 0 0 0 0 0 0 0 0 0 0 0 0 0 0 0 0 127 0" result="hardAlpha"/>
<feOffset dx="-0.500545" dy="5.506"/>
<feGaussianBlur stdDeviation="4.00436"/>
<feColorMatrix type="matrix" values="0 0 0 0 0.075 0 0 0 0 0.18 0 0 0 0 0.45 0 0 0 0.08 0"/>
<feBlend mode="normal" in2="BackgroundImageFix" result="effect1_dropShadow_2056_3936"/>
<feBlend mode="normal" in="SourceGraphic" in2="effect1_dropShadow_2056_3936" result="shape"/>
</filter>
<filter id="filter2_d_2056_3936" x="365.892" y="60.4168" width="431.498" height="431.85" filterUnits="userSpaceOnUse" color-interpolation-filters="sRGB">
<feFlood flood-opacity="0" result="BackgroundImageFix"/>
<feColorMatrix in="SourceAlpha" type="matrix" values="0 0 0 0 0 0 0 0 0 0 0 0 0 0 0 0 0 0 127 0" result="hardAlpha"/>
<feOffset dx="-0.594369" dy="6.53806"/>
<feGaussianBlur stdDeviation="4.75495"/>
<feColorMatrix type="matrix" values="0 0 0 0 0.075 0 0 0 0 0.18 0 0 0 0 0.45 0 0 0 0.08 0"/>
<feBlend mode="normal" in2="BackgroundImageFix" result="effect1_dropShadow_2056_3936"/>
<feBlend mode="normal" in="SourceGraphic" in2="effect1_dropShadow_2056_3936" result="shape"/>
</filter>
<filter id="filter3_d_2056_3936" x="398.695" y="95.1259" width="365.187" height="365.478" filterUnits="userSpaceOnUse" color-interpolation-filters="sRGB">
<feFlood flood-opacity="0" result="BackgroundImageFix"/>
<feColorMatrix in="SourceAlpha" type="matrix" values="0 0 0 0 0 0 0 0 0 0 0 0 0 0 0 0 0 0 127 0" result="hardAlpha"/>
<feOffset dx="-0.737222" dy="8.10944"/>
<feGaussianBlur stdDeviation="5.89778"/>
<feColorMatrix type="matrix" values="0 0 0 0 0.075 0 0 0 0 0.18 0 0 0 0 0.45 0 0 0 0.08 0"/>
<feBlend mode="normal" in2="BackgroundImageFix" result="effect1_dropShadow_2056_3936"/>
<feBlend mode="normal" in="SourceGraphic" in2="effect1_dropShadow_2056_3936" result="shape"/>
</filter>
<filter id="filter4_f_2056_3936" x="316.283" y="59.2827" width="778.435" height="668.85" filterUnits="userSpaceOnUse" color-interpolation-filters="sRGB">
<feFlood flood-opacity="0" result="BackgroundImageFix"/>
<feBlend mode="normal" in="SourceGraphic" in2="BackgroundImageFix" result="shape"/>
<feGaussianBlur stdDeviation="103.859" result="effect1_foregroundBlur_2056_3936"/>
</filter>
<filter id="filter5_f_2056_3936" x="-383" y="-417" width="920" height="924" filterUnits="userSpaceOnUse" color-interpolation-filters="sRGB">
<feFlood flood-opacity="0" result="BackgroundImageFix"/>
<feBlend mode="normal" in="SourceGraphic" in2="BackgroundImageFix" result="shape"/>
<feGaussianBlur stdDeviation="150" result="effect1_foregroundBlur_2056_3936"/>
</filter>
<filter id="filter6_f_2056_3936" x="-347" y="20" width="821" height="823" filterUnits="userSpaceOnUse" color-interpolation-filters="sRGB">
<feFlood flood-opacity="0" result="BackgroundImageFix"/>
<feBlend mode="normal" in="SourceGraphic" in2="BackgroundImageFix" result="shape"/>
<feGaussianBlur stdDeviation="150" result="effect1_foregroundBlur_2056_3936"/>
</filter>
<filter id="filter7_dd_2056_3936" x="358.041" y="60.4158" width="359.241" height="236.605" filterUnits="userSpaceOnUse" color-interpolation-filters="sRGB">
<feFlood flood-opacity="0" result="BackgroundImageFix"/>
<feColorMatrix in="SourceAlpha" type="matrix" values="0 0 0 0 0 0 0 0 0 0 0 0 0 0 0 0 0 0 127 0" result="hardAlpha"/>
<feOffset dy="7.7664"/>
<feGaussianBlur stdDeviation="13.9795"/>
<feComposite in2="hardAlpha" operator="out"/>
<feColorMatrix type="matrix" values="0 0 0 0 0.00677083 0 0 0 0 0.0690625 0 0 0 0 0.1625 0 0 0 0.47 0"/>
<feBlend mode="normal" in2="BackgroundImageFix" result="effect1_dropShadow_2056_3936"/>
<feColorMatrix in="SourceAlpha" type="matrix" values="0 0 0 0 0 0 0 0 0 0 0 0 0 0 0 0 0 0 127 0" result="hardAlpha"/>
<feOffset/>
<feGaussianBlur stdDeviation="1.81216"/>
<feComposite in2="hardAlpha" operator="out"/>
<feColorMatrix type="matrix" values="0 0 0 0 0 0 0 0 0 0 0 0 0 0 0 0 0 0 0.15 0"/>
<feBlend mode="normal" in2="effect1_dropShadow_2056_3936" result="effect2_dropShadow_2056_3936"/>
<feBlend mode="normal" in="SourceGraphic" in2="effect2_dropShadow_2056_3936" result="shape"/>
</filter>
<filter id="filter8_dd_2056_3936" x="358.041" y="45.8074" width="359.24" height="251.213" filterUnits="userSpaceOnUse" color-interpolation-filters="sRGB">
<feFlood flood-opacity="0" result="BackgroundImageFix"/>
<feColorMatrix in="SourceAlpha" type="matrix" values="0 0 0 0 0 0 0 0 0 0 0 0 0 0 0 0 0 0 127 0" result="hardAlpha"/>
<feOffset dy="7.7664"/>
<feGaussianBlur stdDeviation="13.9795"/>
<feComposite in2="hardAlpha" operator="out"/>
<feColorMatrix type="matrix" values="0 0 0 0 0.00677083 0 0 0 0 0.0690625 0 0 0 0 0.1625 0 0 0 0.5 0"/>
<feBlend mode="normal" in2="BackgroundImageFix" result="effect1_dropShadow_2056_3936"/>
<feColorMatrix in="SourceAlpha" type="matrix" values="0 0 0 0 0 0 0 0 0 0 0 0 0 0 0 0 0 0 127 0" result="hardAlpha"/>
<feOffset/>
<feGaussianBlur stdDeviation="1.81216"/>
<feComposite in2="hardAlpha" operator="out"/>
<feColorMatrix type="matrix" values="0 0 0 0 0 0 0 0 0 0 0 0 0 0 0 0 0 0 0.15 0"/>
<feBlend mode="normal" in2="effect1_dropShadow_2056_3936" result="effect2_dropShadow_2056_3936"/>
<feBlend mode="normal" in="SourceGraphic" in2="effect2_dropShadow_2056_3936" result="shape"/>
</filter>
<filter id="filter9_dd_2056_3936" x="536.593" y="105.593" width="169.062" height="229.346" filterUnits="userSpaceOnUse" color-interpolation-filters="sRGB">
<feFlood flood-opacity="0" result="BackgroundImageFix"/>
<feColorMatrix in="SourceAlpha" type="matrix" values="0 0 0 0 0 0 0 0 0 0 0 0 0 0 0 0 0 0 127 0" result="hardAlpha"/>
<feOffset/>
<feGaussianBlur stdDeviation="18.7035"/>
<feColorMatrix type="matrix" values="0 0 0 0 0.00392157 0 0 0 0 0.00392157 0 0 0 0 0.0235294 0 0 0 0.32 0"/>
<feBlend mode="normal" in2="BackgroundImageFix" result="effect1_dropShadow_2056_3936"/>
<feColorMatrix in="SourceAlpha" type="matrix" values="0 0 0 0 0 0 0 0 0 0 0 0 0 0 0 0 0 0 127 0" result="hardAlpha"/>
<feOffset dy="9.97517"/>
<feGaussianBlur stdDeviation="4.98759"/>
<feComposite in2="hardAlpha" operator="out"/>
<feColorMatrix type="matrix" values="0 0 0 0 0 0 0 0 0 0 0 0 0 0 0 0 0 0 0.25 0"/>
<feBlend mode="normal" in2="effect1_dropShadow_2056_3936" result="effect2_dropShadow_2056_3936"/>
<feBlend mode="normal" in="SourceGraphic" in2="effect2_dropShadow_2056_3936" result="shape"/>
</filter>
<filter id="filter10_d_2056_3936" x="544.312" y="131.324" width="153.291" height="180.307" filterUnits="userSpaceOnUse" color-interpolation-filters="sRGB">
<feFlood flood-opacity="0" result="BackgroundImageFix"/>
<feColorMatrix in="SourceAlpha" type="matrix" values="0 0 0 0 0 0 0 0 0 0 0 0 0 0 0 0 0 0 127 0" result="hardAlpha"/>
<feOffset/>
<feGaussianBlur stdDeviation="18.7035"/>
<feColorMatrix type="matrix" values="0 0 0 0 0.00392157 0 0 0 0 0.00392157 0 0 0 0 0.0235294 0 0 0 0.32 0"/>
<feBlend mode="normal" in2="BackgroundImageFix" result="effect1_dropShadow_2056_3936"/>
<feBlend mode="normal" in="SourceGraphic" in2="effect1_dropShadow_2056_3936" result="shape"/>
</filter>
<filter id="filter11_dd_2056_3936" x="598.345" y="124.891" width="169.062" height="229.346" filterUnits="userSpaceOnUse" color-interpolation-filters="sRGB">
<feFlood flood-opacity="0" result="BackgroundImageFix"/>
<feColorMatrix in="SourceAlpha" type="matrix" values="0 0 0 0 0 0 0 0 0 0 0 0 0 0 0 0 0 0 127 0" result="hardAlpha"/>
<feOffset/>
<feGaussianBlur stdDeviation="18.7035"/>
<feColorMatrix type="matrix" values="0 0 0 0 0.00392157 0 0 0 0 0.00392157 0 0 0 0 0.0235294 0 0 0 0.32 0"/>
<feBlend mode="normal" in2="BackgroundImageFix" result="effect1_dropShadow_2056_3936"/>
<feColorMatrix in="SourceAlpha" type="matrix" values="0 0 0 0 0 0 0 0 0 0 0 0 0 0 0 0 0 0 127 0" result="hardAlpha"/>
<feOffset dy="9.97517"/>
<feGaussianBlur stdDeviation="4.98759"/>
<feComposite in2="hardAlpha" operator="out"/>
<feColorMatrix type="matrix" values="0 0 0 0 0 0 0 0 0 0 0 0 0 0 0 0 0 0 0.25 0"/>
<feBlend mode="normal" in2="effect1_dropShadow_2056_3936" result="effect2_dropShadow_2056_3936"/>
<feBlend mode="normal" in="SourceGraphic" in2="effect2_dropShadow_2056_3936" result="shape"/>
</filter>
<filter id="filter12_d_2056_3936" x="606.065" y="150.62" width="153.291" height="180.307" filterUnits="userSpaceOnUse" color-interpolation-filters="sRGB">
<feFlood flood-opacity="0" result="BackgroundImageFix"/>
<feColorMatrix in="SourceAlpha" type="matrix" values="0 0 0 0 0 0 0 0 0 0 0 0 0 0 0 0 0 0 127 0" result="hardAlpha"/>
<feOffset/>
<feGaussianBlur stdDeviation="18.7035"/>
<feColorMatrix type="matrix" values="0 0 0 0 0.00392157 0 0 0 0 0.00392157 0 0 0 0 0.0235294 0 0 0 0.32 0"/>
<feBlend mode="normal" in2="BackgroundImageFix" result="effect1_dropShadow_2056_3936"/>
<feBlend mode="normal" in="SourceGraphic" in2="effect1_dropShadow_2056_3936" result="shape"/>
</filter>
<filter id="filter13_dd_2056_3936" x="342.408" y="43.4077" width="144.187" height="99.1868" filterUnits="userSpaceOnUse" color-interpolation-filters="sRGB">
<feFlood flood-opacity="0" result="BackgroundImageFix"/>
<feColorMatrix in="SourceAlpha" type="matrix" values="0 0 0 0 0 0 0 0 0 0 0 0 0 0 0 0 0 0 127 0" result="hardAlpha"/>
<feOffset dx="8.12639" dy="8.12639"/>
<feGaussianBlur stdDeviation="8.12639"/>
<feColorMatrix type="matrix" values="0 0 0 0 0 0 0 0 0 0.296699 0 0 0 0 0.858629 0 0 0 0.08 0"/>
<feBlend mode="normal" in2="BackgroundImageFix" result="effect1_dropShadow_2056_3936"/>
<feColorMatrix in="SourceAlpha" type="matrix" values="0 0 0 0 0 0 0 0 0 0 0 0 0 0 0 0 0 0 127 0" result="hardAlpha"/>
<feOffset/>
<feGaussianBlur stdDeviation="5.68847"/>
<feComposite in2="hardAlpha" operator="out"/>
<feColorMatrix type="matrix" values="0 0 0 0 0.0354167 0 0 0 0 0.105426 0 0 0 0 0.2125 0 0 0 0.07 0"/>
<feBlend mode="normal" in2="effect1_dropShadow_2056_3936" result="effect2_dropShadow_2056_3936"/>
<feBlend mode="normal" in="SourceGraphic" in2="effect2_dropShadow_2056_3936" result="shape"/>
</filter>
<radialGradient id="paint0_radial_2056_3936" cx="0" cy="0" r="1" gradientUnits="userSpaceOnUse" gradientTransform="translate(599.719 285.522) rotate(90) scale(97.1246 239.005)">
<stop stop-color="#14458C"/>
<stop offset="0.515625" stop-color="#0C3470" stop-opacity="0.8"/>
<stop offset="1" stop-color="#092349" stop-opacity="0"/>
</radialGradient>
<linearGradient id="paint1_linear_2056_3936" x1="694.093" y1="326.804" x2="478.38" y2="216.541" gradientUnits="userSpaceOnUse">
<stop stop-color="#303B45" stop-opacity="0"/>
<stop offset="0.276042" stop-color="#0C1014" stop-opacity="0.744681"/>
<stop offset="0.489583" stop-color="#000203"/>
<stop offset="0.729167" stop-color="#0D1115" stop-opacity="0.72449"/>
<stop offset="1" stop-color="#303B45" stop-opacity="0"/>
</linearGradient>
<linearGradient id="paint2_linear_2056_3936" x1="722.46" y1="34.2902" x2="469.271" y2="514.516" gradientUnits="userSpaceOnUse">
<stop stop-color="#3160A6"/>
<stop offset="1" stop-color="#1B4582"/>
</linearGradient>
<linearGradient id="paint3_linear_2056_3936" x1="703.875" y1="65.7877" x2="482.4" y2="485.861" gradientUnits="userSpaceOnUse">
<stop stop-color="#3160A6"/>
<stop offset="1" stop-color="#1B4582"/>
</linearGradient>
<linearGradient id="paint4_linear_2056_3936" x1="687.693" y1="92.9478" x2="495.571" y2="457.348" gradientUnits="userSpaceOnUse">
<stop stop-color="#3160A6"/>
<stop offset="1" stop-color="#1B4582"/>
</linearGradient>
<linearGradient id="paint5_linear_2056_3936" x1="669.165" y1="123.621" x2="510.416" y2="424.722" gradientUnits="userSpaceOnUse">
<stop stop-color="#3160A6"/>
<stop offset="1" stop-color="#1B4582"/>
</linearGradient>
<linearGradient id="paint6_linear_2056_3936" x1="360.381" y1="60.0559" x2="405.014" y2="144.367" gradientUnits="userSpaceOnUse">
<stop stop-color="#1C47A5"/>
<stop offset="0.265625" stop-color="#1C47A5"/>
<stop offset="1" stop-color="#072360"/>
</linearGradient>
<linearGradient id="paint7_linear_2056_3936" x1="364.954" y1="56" x2="409.407" y2="140.248" gradientUnits="userSpaceOnUse">
<stop stop-color="#2B6DD3"/>
<stop offset="0.40625" stop-color="#2B6DD3" stop-opacity="0"/>
<stop offset="0.583333" stop-color="#2B6DD3" stop-opacity="0"/>
<stop offset="1" stop-color="#2B6DD3"/>
</linearGradient>
<linearGradient id="paint8_linear_2056_3936" x1="353.875" y1="341.284" x2="420.504" y2="163.158" gradientUnits="userSpaceOnUse">
<stop stop-color="#C3BFFF"/>
<stop offset="0.7" stop-color="#C3BFFF"/>
<stop offset="1" stop-color="#091B36" stop-opacity="0"/>
</linearGradient>
<linearGradient id="paint9_linear_2056_3936" x1="541.108" y1="315.512" x2="583.947" y2="358.708" gradientUnits="userSpaceOnUse">
<stop stop-color="#0E2446"/>
<stop offset="1" stop-color="#003C97"/>
</linearGradient>
<linearGradient id="paint10_linear_2056_3936" x1="560.53" y1="312" x2="560.53" y2="359" gradientUnits="userSpaceOnUse">
<stop stop-color="white" stop-opacity="0.09"/>
<stop offset="1" stop-color="#9D97F4"/>
</linearGradient>
<linearGradient id="paint11_linear_2056_3936" x1="469.284" y1="315.512" x2="512.123" y2="358.708" gradientUnits="userSpaceOnUse">
<stop stop-color="#0E2446"/>
<stop offset="1" stop-color="#003C97"/>
</linearGradient>
<linearGradient id="paint12_linear_2056_3936" x1="488.706" y1="312" x2="488.706" y2="359" gradientUnits="userSpaceOnUse">
<stop stop-color="white" stop-opacity="0.09"/>
<stop offset="1" stop-color="#9D97F4"/>
</linearGradient>
<clipPath id="clip0_2056_3936">
<rect width="780" height="400" fill="white"/>
</clipPath>
</defs>
</svg>
